<svg xmlns="http://www.w3.org/2000/svg" width="512" height="512" style="shape-rendering:geometricPrecision;text-rendering:geometricPrecision;image-rendering:optimizeQuality;fill-rule:evenodd;clip-rule:evenodd"><path style="opacity:.966" fill="#02bdff" d="M245.5-.5h20c13.363 3.693 24.696 10.693 34 21a1980.83 1980.83 0 0 1-89 1c9.619-10.64 21.286-17.973 35-22Z"/><path style="opacity:.983" fill="#06b8ff" d="M299.5 20.5c8.729 9.114 15.729 19.447 21 31-11.716-.644-23.049.022-34 2-19.469-29.875-39.802-30.541-61-2a316.21 316.21 0 0 1-35-1c5.445-10.574 12.112-20.24 20-29a1980.83 1980.83 0 0 0 89-1Z"/><path style="opacity:.976" fill="#0bb2ff" d="M190.5 50.5a316.21 316.21 0 0 0 35 1 202.34 202.34 0 0 0-17 34 281.715 281.715 0 0 1-33-1 193.549 193.549 0 0 1 15-34Z"/><path style="opacity:.981" fill="#0bb2ff" d="M320.5 51.5c6.536 10.591 11.536 21.925 15 34-10.846-.328-21.513.006-32 1a257.36 257.36 0 0 0-17-33c10.951-1.978 22.284-2.644 34-2Z"/><path style="opacity:.973" fill="#1af" d="M175.5 84.5a281.715 281.715 0 0 0 33 1c-4.117 9.663-7.117 19.33-9 29a2965.741 2965.741 0 0 1-154 0c10.205-8.137 21.871-13.303 35-15.5 17.954-2.69 35.954-2.69 54 0a462.135 462.135 0 0 1 35 6.5 188.302 188.302 0 0 1 6-21ZM335.5 85.5a115.106 115.106 0 0 1 6 20 336.453 336.453 0 0 1 64-9c18.73-.222 36.397 3.945 53 12.5a42.689 42.689 0 0 1 6 4.5c-25.158 1.333-50.658 2-76.5 2-25.669 0-51.169-.333-76.5-1 .438.065.772-.101 1-.5a1329.469 1329.469 0 0 1-9-27.5c10.487-.994 21.154-1.328 32-1Z"/><path style="opacity:.984" fill="#15a5ff" d="M464.5 113.5c10.173 7.856 16.173 18.189 18 31h-32c-5.645-7.834-13.311-12.667-23-14.5-13.608-2.829-27.275-3.162-41-1a514.833 514.833 0 0 0-37 6.5 188.78 188.78 0 0 1 2 12c-10.591-.605-20.925.062-31 2a42.47 42.47 0 0 0-1.5-5c-.671.752-1.504 1.086-2.5 1a1831.083 1831.083 0 0 0-121 0c-1.322.17-2.489-.163-3.5-1-.232 1.237-.732 2.237-1.5 3h-31a188.78 188.78 0 0 1 2-12 246.626 246.626 0 0 0-62-7.5c-12.417-.066-23.75 3.268-34 10a25.543 25.543 0 0 0-5 6.5h-32c1.534-12.408 7.201-22.408 17-30a2965.741 2965.741 0 0 0 154 0 572.605 572.605 0 0 1 56 22 572.605 572.605 0 0 1 56-22c25.331.667 50.831 1 76.5 1 25.842 0 51.342-.667 76.5-2Z"/><path style="opacity:.974" fill="#1a9fff" d="M28.5 144.5h32c-2.86 10.164-2.193 20.164 2 30h-32c-2.955-9.861-3.622-19.861-2-30Z"/><path style="opacity:.984" fill="#1a9fff" d="M316.5 145.5a365.395 365.395 0 0 0-24 9.5 355.024 355.024 0 0 1 31 18.5l-60 2a104.618 104.618 0 0 0-7.5-4 99.655 99.655 0 0 0-8.5 4 2117.57 2117.57 0 0 0-92-1 219.662 219.662 0 0 1 4-27h31a345.356 345.356 0 0 0-3.5 26 492.828 492.828 0 0 1 31.5-18.5 1128.796 1128.796 0 0 0-23-9.5 1831.083 1831.083 0 0 1 121 0Z"/><path style="opacity:.976" fill="#1b9fff" d="M351.5 147.5a202.22 202.22 0 0 1 4 28l-31-2a1045.62 1045.62 0 0 0-4-24c10.075-1.938 20.409-2.605 31-2Z"/><path style="opacity:.975" fill="#1a9fff" d="M450.5 144.5h32c1.622 10.139.955 20.139-2 30a291.712 291.712 0 0 0-33 1c5.126-9.98 6.126-20.313 3-31Z"/><path style="opacity:.984" fill="#1e9bff" d="M323.5 173.5h1l31 2c1.144 4.464 1.81 9.13 2 14-21.336-.167-42.669 0-64 .5.556.383.889.883 1 1.5a677.006 677.006 0 0 0-31-16l60-2Z"/><path style="opacity:.987" fill="#1e9bff" d="M155.5 174.5a2117.57 2117.57 0 0 1 92 1 677.006 677.006 0 0 0-31 16c.111-.617.444-1.117 1-1.5a2047.17 2047.17 0 0 0-64-.5 92.343 92.343 0 0 1 2-15Z"/><path style="opacity:.983" fill="#2098ff" d="M30.5 174.5h32a217.802 217.802 0 0 0 20 34h-37c-7.148-10.305-12.148-21.638-15-34Z"/><path style="opacity:.981" fill="#2197ff" d="M153.5 189.5c21.336-.167 42.669 0 64 .5-.556.383-.889.883-1 1.5a549.307 549.307 0 0 1-27 17h-53a289.73 289.73 0 0 1 15.5-12 52.56 52.56 0 0 0 1.5-7Z"/><path style="opacity:.982" fill="#2197ff" d="M357.5 189.5a52.56 52.56 0 0 0 1.5 7 250.729 250.729 0 0 1 14.5 11l-50 2a642.17 642.17 0 0 1-29-18c-.111-.617-.444-1.117-1-1.5 21.331-.5 42.664-.667 64-.5Z"/><path style="opacity:.979" fill="#2098ff" d="M480.5 174.5c-2.852 12.362-7.852 23.695-15 34-12.178.328-24.178-.005-36-1a187.616 187.616 0 0 0 18-32 291.712 291.712 0 0 1 33-1Z"/><path style="opacity:.986" fill="#2592ff" d="M45.5 208.5h37a771.192 771.192 0 0 0 22.5 25 363.344 363.344 0 0 1 31.5-25h53a63.382 63.382 0 0 1-6.5 5 133.29 133.29 0 0 0-1.5 24 120.655 120.655 0 0 1-31 0c.065-.438-.101-.772-.5-1-.708.881-1.542 1.547-2.5 2h-80a162.867 162.867 0 0 1-22-30ZM373.5 207.5a655.94 655.94 0 0 1 32.5 26 838.665 838.665 0 0 0 23.5-26c11.822.995 23.822 1.328 36 1a162.867 162.867 0 0 1-22 30h-80l-3-2-31 4a159.523 159.523 0 0 0-1.5-27 32.6 32.6 0 0 1-4.5-4l50-2Z"/><path style="opacity:.993" fill="#2691ff" d="M297.5 238.5c-28.02.658-55.687-.008-83-2 10.663-20.665 27.663-29.165 51-25.5 15.476 3.648 26.143 12.814 32 27.5Z"/><path style="opacity:.996" fill="#2a8cff" d="M360.5 236.5v31h-30c.268 1.599-.066 2.932-1 4v-31l31-4Z"/><path style="opacity:.993" fill="#2a8cff" d="M150.5 237.5a120.655 120.655 0 0 0 31 0v31a249.277 249.277 0 0 0-31-1v-30Z"/><path style="opacity:.98" fill="#2a8dff" d="M214.5 236.5c27.313 1.992 54.98 2.658 83 2a18.838 18.838 0 0 1 2.5 7c.795 7.08.628 14.08-.5 21-11.431 1.319-22.765 1.319-34 0 5.087-6.873 5.253-13.873.5-21-9.837-6.624-17.837-4.957-24 5-1.684 6.385-.184 11.719 4.5 16-11.488.995-23.155 1.328-35 1a87.05 87.05 0 0 1-.5-22c.661-3.302 1.828-6.302 3.5-9Z"/><path style="opacity:.985" fill="#298cff" d="M67.5 238.5h80a226.698 226.698 0 0 0-19 17 127.298 127.298 0 0 1 11 11c-22.494.997-45.16 1.331-68 1a86.558 86.558 0 0 0 10-12c-4.69-5.686-9.356-11.353-14-17Z"/><path style="opacity:.982" fill="#298cff" d="M363.5 238.5h80a14072.43 14072.43 0 0 1-14 17 86.58 86.58 0 0 0 10 12c-23.173.331-46.173-.002-69-1 4.009-3.669 8.009-7.335 12-11a226.698 226.698 0 0 0-19-17Z"/><path style="opacity:.986" fill="#2f86ff" d="M139.5 266.5a67.583 67.583 0 0 1 10.5 8c.497-2.31.663-4.643.5-7a249.277 249.277 0 0 1 31 1c-.12 9.688.213 19.354 1 29 .065.438-.101.772-.5 1-17.803-.686-35.636-1.353-53.5-2a622.517 622.517 0 0 1-23.5-19c-6.768 6.262-12.935 12.929-18.5 20h-38a252.407 252.407 0 0 1 23-30c22.84.331 45.506-.003 68-1Z"/><path style="opacity:.984" fill="#2e86ff" d="M246.5 266.5c6.299 3.94 12.633 3.94 19 0 11.235 1.319 22.569 1.319 34 0-6.462 21.903-21.129 33.236-44 34-22.311-.821-36.977-11.821-44-33 11.845.328 23.512-.005 35-1Z"/><path style="opacity:.984" fill="#2f86ff" d="M370.5 266.5c22.827.998 45.827 1.331 69 1a271.447 271.447 0 0 1 24 31c-12.795-1.303-25.461-1.303-38 0a244.026 244.026 0 0 0-19.5-21 622.517 622.517 0 0 1-23.5 19c-17.864.647-35.697 1.314-53.5 2-.399-.228-.565-.562-.5-1a268.491 268.491 0 0 0 1-26c.934-1.068 1.268-2.401 1-4h30c-.163 2.357.003 4.69.5 7a188.56 188.56 0 0 1 9.5-8Z"/><path style="opacity:.977" fill="#3480ff" d="M48.5 297.5h38a228.566 228.566 0 0 0-22 34c-10.846.328-21.513-.006-32-1 3.49-11.977 8.823-22.977 16-33Z"/><path style="opacity:.982" fill="#347fff" d="M128.5 296.5c17.864.647 35.697 1.314 53.5 2 .399-.228.565-.562.5-1a1200.323 1200.323 0 0 0 56 34h-84a148.575 148.575 0 0 0-2.5-17 305.617 305.617 0 0 1-23.5-18ZM382.5 296.5a305.617 305.617 0 0 1-23.5 18 123.442 123.442 0 0 0-2.5 17h-84a1200.323 1200.323 0 0 0 56-34c-.065.438.101.772.5 1 17.803-.686 35.636-1.353 53.5-2Z"/><path style="opacity:.979" fill="#3480ff" d="M463.5 298.5a151.015 151.015 0 0 1 16 33c-11.052-.643-21.719.024-32 2a293.833 293.833 0 0 0-22-35c12.539-1.303 25.205-1.303 38 0Z"/><path style="opacity:.974" fill="#3979ff" d="M32.5 330.5c10.487.994 21.154 1.328 32 1-4.301 9.173-6.301 18.84-6 29a233.82 233.82 0 0 1-30 1c.237-1.291-.096-2.291-1-3-.256-9.805 1.41-19.138 5-28Z"/><path style="opacity:.983" fill="#3979ff" d="M154.5 331.5h84a409.11 409.11 0 0 1 17.5 8 125.703 125.703 0 0 1 16.5-8h84a300.693 300.693 0 0 1-5 31c-10.235-1.318-20.569-1.318-31 0a321.404 321.404 0 0 0 3.5-25 492.828 492.828 0 0 1-31.5 18.5 227.398 227.398 0 0 1 12 5.5h-98a227.398 227.398 0 0 1 12-5.5 492.828 492.828 0 0 1-31.5-18.5 178.397 178.397 0 0 0 3.5 24c-10.514-.328-20.847.006-31 1a300.693 300.693 0 0 1-5-31Z"/><path style="opacity:.971" fill="#3979ff" d="M479.5 331.5c3.069 9.752 4.403 19.752 4 30h-31c.387-9.727-1.279-19.06-5-28 10.281-1.976 20.948-2.643 32-2Z"/><path style="opacity:.991" fill="#3d74ff" d="M190.5 361.5a42.47 42.47 0 0 0 1.5 5 86.85 86.85 0 0 1 14.5-5h98a86.85 86.85 0 0 1 14.5 5c.41-1.401.91-2.734 1.5-4 10.431-1.318 20.765-1.318 31 0a110.343 110.343 0 0 1-2 13h-90c-2.667-1.333-5.333-1.333-8 0h-90a110.343 110.343 0 0 1-2-13c10.153-.994 20.486-1.328 31-1Z"/><path style="opacity:.981" fill="#3f72ff" d="M27.5 358.5c.904.709 1.237 1.709 1 3a233.82 233.82 0 0 0 30-1c2.418 9.585 8.418 15.752 18 18.5 15.787 4.314 31.787 5.314 48 3a514.833 514.833 0 0 0 37-6.5h90a232.396 232.396 0 0 1-39 16 3704.98 3704.98 0 0 0-172 0c-8.445-9.246-12.778-20.246-13-33Z"/><path style="opacity:.979" fill="#3f72ff" d="M452.5 361.5h31c-.87 11.644-5.203 21.644-13 30a3699.425 3699.425 0 0 0-172 0 232.396 232.396 0 0 1-39-16h90a309.17 309.17 0 0 0 55.5 8c11.921-.07 23.421-2.236 34.5-6.5 6.711-3.208 11.044-8.374 13-15.5Z"/><path style="opacity:.984" fill="#426eff" d="M212.5 391.5a323.842 323.842 0 0 1-14 5.5 1049.526 1049.526 0 0 1 8 24.5c-10.765-1.318-21.431-1.318-32 0-2.443-5-4.11-10.334-5-16-26.908 7.008-54.242 9.508-82 7.5-15.012-1.447-28.678-6.447-41-15a54.547 54.547 0 0 1-6-6.5 3704.98 3704.98 0 0 1 172 0Z"/><path style="opacity:.985" fill="#426eff" d="M470.5 391.5c-5.766 7.247-13.1 12.414-22 15.5a120.65 120.65 0 0 1-25 6c-27.758 2.008-55.092-.492-82-7.5a95.17 95.17 0 0 1-4 15h-33a975.43 975.43 0 0 0 8-23.5 323.842 323.842 0 0 1-14-5.5 3699.425 3699.425 0 0 1 172 0Z"/><path style="opacity:.975" fill="#4867ff" d="M206.5 421.5a269.099 269.099 0 0 0 16 33c-11.512-.328-22.846.005-34 1-6.29-10.591-10.957-21.925-14-34 10.569-1.318 21.235-1.318 32 0Z"/><path style="opacity:.976" fill="#4867ff" d="M304.5 420.5h33c-3.66 12.311-8.66 23.977-15 35-11.154-.995-22.488-1.328-34-1a221.624 221.624 0 0 0 16-34Z"/><path style="opacity:.978" fill="#4e60ff" d="M222.5 454.5c22 34.667 44 34.667 66 0 11.512-.328 22.846.005 34 1-4.761 11.074-11.094 21.074-19 30a2352.52 2352.52 0 0 0-97-1c-7.619-8.628-13.619-18.295-18-29 11.154-.995 22.488-1.328 34-1Z"/><path style="opacity:.977" fill="#525bff" d="M206.5 484.5a2352.52 2352.52 0 0 1 97 1c-9.693 13.029-22.36 21.695-38 26h-20c-15.985-4.646-28.985-13.646-39-27Z"/></svg>